<svg width="65" height="65" viewBox="0 0 65 65" fill="none" xmlns="http://www.w3.org/2000/svg">
<path d="M35.0449 32.4999L50.0129 17.5319C50.3087 17.1865 50.4632 16.7422 50.4457 16.2878C50.4282 15.8334 50.2397 15.4023 49.9181 15.0807C49.5966 14.7592 49.1656 14.5708 48.7111 14.5533C48.2569 14.5357 47.8125 14.6903 47.4671 14.9861L32.4991 29.954L17.5309 14.968C17.191 14.628 16.7298 14.437 16.249 14.437C15.7682 14.437 15.3071 14.628 14.9671 14.968C14.6271 15.308 14.4361 15.7691 14.4361 16.25C14.4361 16.7308 14.6271 17.1919 14.9671 17.5319L29.9532 32.4999L14.9671 47.4679C14.7781 47.6299 14.6245 47.829 14.5162 48.0531C14.4078 48.277 14.3469 48.5211 14.3373 48.7697C14.3277 49.0184 14.3696 49.2663 14.4604 49.4981C14.5511 49.7298 14.6888 49.9401 14.8648 50.1161C15.0407 50.292 15.2512 50.4298 15.4829 50.5206C15.7146 50.6114 15.9625 50.6533 16.2112 50.6435C16.4599 50.634 16.7038 50.5731 16.9278 50.4648C17.1519 50.3563 17.351 50.2028 17.5129 50.0138L32.4991 35.0457L47.4671 50.0138C47.8125 50.3097 48.2569 50.4643 48.7111 50.4467C49.1656 50.429 49.5966 50.2407 49.9181 49.9192C50.2397 49.5976 50.4282 49.1666 50.4457 48.7121C50.4632 48.2577 50.3087 47.8133 50.0129 47.4679L35.0449 32.4999Z" fill="white" fill-opacity="0.5"/>
</svg>
